#!OML:ASF X:\für Bonn\!DataBase\2005_08_12_Daniel\c3d\Daniel.ASF
:FULLY-SPECIFIED
:DEGREES
2405
root 3.85759 17.6207 -5.98246 -3.28336 177.705 -347.989
lowerback 9.8987 0.383713 2.83284
upperback 2.64004 1.01057 -0.258323
thorax -2.75297 0.588585 -1.98846
lowerneck -5.49652 11.523 0.962128
upperneck 2.81421 16.5212 -10.9749
head 3.00719 8.13187 -2.92848
rclavicle 4.37326e-015 3.02153e-014
rhumerus -60.5712 23.1203 -108.324
rradius 95.0369
rwrist 0.987709
rhand -24.3665 31.6813
rfingers 7.12502
rthumb 2.12344 1.71211
lclavicle 4.37326e-015 3.02153e-014
lhumerus -72.4146 -3.15528 95.5544
lradius 113.194
lwrist 21.1384
lhand -8.36926 -13.5104
lfingers 7.12502
lthumb 17.5535 15.7171
rfemur 11.4125 -7.2727 19.2108
rtibia 56.7314
rfoot 4.13304 -3.17724
rtoes -18.3496
lfemur -24.4077 5.45667 -25.5843
ltibia 38.1806
lfoot -11.6298 5.90114
ltoes 0.588489
2406
root 3.87608 17.5025 -6.29481 -3.86962 178.544 -348.094
lowerback 10.2848 0.138617 2.79742
upperback 2.89615 0.717149 -0.406751
thorax -2.71465 0.460246 -2.09119
lowerneck -5.39759 11.5599 0.481941
upperneck 2.4864 16.5549 -10.8272
head 2.81484 8.16443 -2.81648
rclavicle -5.36719e-015 -5.725e-014
rhumerus -60.1244 21.6703 -107.656
rradius 93.4546
rwrist 1.34389
rhand -24.3834 32.0842
rfingers 7.12502
rthumb 2.10709 2.11489
lclavicle -5.36719e-015 -5.725e-014
lhumerus -71.1783 -2.85381 95.3428
lradius 113.771
lwrist 20.9687
lhand -8.32668 -13.0451
lfingers 7.12502
lthumb 17.5945 16.1788
rfemur 10.7453 -7.6744 18.5908
rtibia 59.6641
rfoot 3.55152 -2.2121
rtoes -19.4472
lfemur -23.864 5.41755 -26.2243
ltibia 39.0494
lfoot -12.2087 6.14954
ltoes 4.26448
2407
root 3.89368 17.38 -6.6025 -4.39135 179.343 -348.249
lowerback 10.6422 -0.0596895 2.60308
upperback 3.10882 0.467475 -0.521204
thorax -2.70517 0.352063 -2.07257
lowerneck -5.25915 12.1797 0.239191
upperneck 2.32146 16.4357 -10.8152
head 2.69958 7.77558 -2.81135
rclavicle 3.77691e-015 7.95139e-015
rhumerus -59.7069 19.9126 -106.815
rradius 91.9022
rwrist 1.91272
rhand -24.4162 32.3033
rfingers 7.12502
rthumb 2.07537 2.33364
lclavicle 3.77691e-015 7.95139e-015
lhumerus -70.1344 -2.45275 95.2122
lradius 114.335
lwrist 20.7444
lhand -8.15185 -12.7983
lfingers 7.12502
lthumb 17.7627 16.4104
rfemur 9.84397 -7.9875 17.9219
rtibia 62.7054
rfoot 2.93425 -1.54483
rtoes -19.8139
lfemur -23.2693 5.34969 -26.9064
ltibia 40.2336
lfoot -13.0757 6.27062
ltoes 7.82236
2408
root 3.90836 17.2493 -6.90266 -4.97374 180.108 -348.43
lowerback 11.1692 0.16745 2.33619
upperback 3.31722 0.13946 -0.550761
thorax -2.78555 -0.070356 -1.90044
lowerneck -5.11626 12.2536 0.40845
upperneck 2.09628 16.5076 -11.0895
head 2.64887 7.81866 -2.93731
rclavicle 2.98177e-015 9.54166e-015
rhumerus -59.2159 18.1198 -105.816
rradius 90.0121
rwrist 2.42967
rhand -24.6772 32.7284
rfingers 7.12502
rthumb 1.82334 2.75641
lclavicle 2.98177e-015 9.54166e-015
lhumerus -69.0855 -1.97199 95.192
lradius 114.881
lwrist 20.4048
lhand -7.96293 -12.7159
lfingers 7.12502
lthumb 17.9445 16.4763
rfemur 8.87582 -8.26785 17.1664
rtibia 65.817
rfoot 2.3681 -1.14092
rtoes -19.1142
lfemur -22.5295 5.01421 -27.5692
ltibia 41.7042
lfoot -14.5705 6.56193
ltoes 10.281
2409
root 3.91743 17.1161 -7.19592 -5.51606 180.817 -348.663
lowerback 11.7727 0.0426757 1.9156
upperback 3.49594 -0.0962207 -0.602074
thorax -2.9422 -0.200558 -1.68487
lowerneck -5.06189 12.354 0.890707
upperneck 1.93309 16.6178 -11.5312
head 2.68828 7.87391 -3.15865
rclavicle -2.18663e-015 -3.18055e-015
rhumerus -58.5294 16.2469 -104.755
rradius 87.847
rwrist 2.94775
rhand -25.1022 33.1334
rfingers 7.12502
rthumb 1.41282 3.15833
lclavicle -2.18663e-015 -3.18055e-015
lhumerus -67.6803 -1.47082 95.1495
lradius 115.192
lwrist 20.1365
lhand -7.8797 -12.7427
lfingers 7.12502
lthumb 18.0246 16.4421
rfemur 7.7168 -8.38101 16.3535
rtibia 68.9519
rfoot 1.83183 -0.9064
rtoes -17.5248
lfemur -21.876 4.45296 -28.2308
ltibia 43.3789
lfoot -16.4779 6.94462
ltoes 11.9569
2410
root 3.92452 16.975 -7.47856 -6.07483 181.513 -348.88
lowerback 12.4681 -0.0933504 1.49878
upperback 3.66843 -0.351522 -0.61088
thorax -3.15178 -0.342077 -1.42027
lowerneck -4.99034 12.4757 1.19566
upperneck 1.69334 16.7524 -11.9361
head 2.67985 7.94297 -3.34242
rclavicle -8.34896e-015 -5.24792e-014
rhumerus -57.7726 14.3672 -103.532
rradius 85.4923
rwrist 3.49174
rhand -25.6932 33.5236
rfingers 7.12502
rthumb 0.842033 3.54548
lclavicle -8.34896e-015 -5.24792e-014
lhumerus -65.9263 -0.943592 95.1382
lradius 115.271
lwrist 19.8308
lhand -7.80233 -12.9936
lfingers 7.12502
lthumb 18.099 16.1843
rfemur 6.43808 -8.40329 15.5719
rtibia 72.0666
rfoot 1.5499 -0.87405
rtoes -14.8336
lfemur -21.2485 3.70699 -28.8233
ltibia 45.2009
lfoot -18.5119 7.40215
ltoes 13.5256
